<svg width="17" height="20" viewBox="0 0 17 20" fill="none" xmlns="http://www.w3.org/2000/svg">
<path d="M8.5 0C6.24657 0.00242591 4.08613 0.879395 2.49263 2.43852C0.899134 3.99765 0.00270492 6.11161 0 8.31665C0 10.4583 1.69472 13.81 5.03732 18.2783C5.43525 18.8117 5.95626 19.2457 6.55797 19.5449C7.15968 19.8441 7.82507 20 8.5 20C9.17493 20 9.84032 19.8441 10.442 19.5449C11.0437 19.2457 11.5648 18.8117 11.9627 18.2783C15.3053 13.81 17 10.4583 17 8.31665C16.9973 6.11161 16.1009 3.99765 14.5074 2.43852C12.9139 0.879395 10.7534 0.00242591 8.5 0ZM8.5 11.6316C7.82626 11.6316 7.16766 11.4362 6.60747 11.0699C6.04727 10.7036 5.61066 10.183 5.35283 9.57393C5.095 8.96484 5.02754 8.29462 5.15898 7.64802C5.29042 7.00142 5.61486 6.40748 6.09126 5.9413C6.56766 5.47513 7.17464 5.15766 7.83543 5.02904C8.49622 4.90042 9.18115 4.96643 9.8036 5.21873C10.4261 5.47102 10.9581 5.89826 11.3324 6.44642C11.7067 6.99459 11.9065 7.63905 11.9065 8.29832C11.9065 9.18237 11.5476 10.0302 10.9087 10.6553C10.2699 11.2805 9.40345 11.6316 8.5 11.6316Z" fill="#FCFCF5"/>
</svg>
