<svg width="20" height="20" viewBox="0 0 20 20" fill="none" xmlns="http://www.w3.org/2000/svg">
<path d="M19.9998 5.1999C19.9998 11.5666 11.5581 19.9999 5.19979 19.9999C3.80812 19.9999 2.50812 19.4749 1.54979 18.5166L0.716456 17.5582C-0.250211 16.5916 -0.250211 14.9582 0.758123 13.9499C0.783123 13.9249 2.79146 12.3832 2.79146 12.3832C3.79146 11.4332 5.36646 11.4332 6.35812 12.3832L7.57479 13.3582C10.2415 12.2249 12.1331 10.3249 13.3498 7.56657L12.3831 6.3499C11.4248 5.35824 11.4248 3.7749 12.3831 2.78324C12.3831 2.78324 13.9248 0.774902 13.9498 0.749902C14.9581 -0.258431 16.5915 -0.258431 17.5998 0.749902L18.4748 1.50824C19.4748 2.4999 19.9998 3.7999 19.9998 5.19157V5.1999Z" fill="#FCFCF5"/>
</svg>
